<svg xmlns="http://www.w3.org/2000/svg" xmlns:xlink="http://www.w3.org/1999/xlink" width="216.03" height="88.006" viewBox="0 0 216.03 88.006"><defs><linearGradient id="linear-gradient" y1="0.5" x2="0.986" y2="0.5" gradientUnits="objectBoundingBox"><stop offset="0" stop-color="#273a7f"></stop><stop offset="1" stop-color="#df307f"></stop></linearGradient></defs><g id="Grupo_3051" data-name="Grupo 3051" transform="translate(-864.32 -255.907)"><g id="Grupo_8" data-name="Grupo 8" transform="translate(6 -12)"><g id="Grupo_1" data-name="Grupo 1" transform="translate(862.927 350.49)"><path id="Trazado_1" data-name="Trazado 1" d="M0,0H-.083L-3.356-9.417h-1.25l3.96,11L-1.667,4.4H-3.46V5.423h1.209a2.075,2.075,0,0,0,1.167-.25,1.917,1.917,0,0,0,.6-.917L4.46-9.417H3.251ZM23.323,1.255h1.208V-13.293H22.885L18.279-5.1h-.063L13.61-13.293H11.9V1.255H13.11V-11.689h.083l5.023,8.9,5.023-8.9h.084ZM34.942.8a4.14,4.14,0,0,0,1.574-1.884l-.876-.58A3.234,3.234,0,0,1,32.41.484,3.61,3.61,0,0,1,30.951.2a3.12,3.12,0,0,1-1.095-.781,3.435,3.435,0,0,1-.687-1.2,4.684,4.684,0,0,1-.24-1.532v-.521h7.9V-4.4a6.776,6.776,0,0,0-.323-2.143A4.988,4.988,0,0,0,35.6-8.2,4.094,4.094,0,0,0,34.181-9.28a4.353,4.353,0,0,0-1.855-.387,4.61,4.61,0,0,0-1.917.386,4.169,4.169,0,0,0-1.47,1.1A4.93,4.93,0,0,0,28-6.426a7.857,7.857,0,0,0-.323,2.345A7.954,7.954,0,0,0,28-1.726,4.909,4.909,0,0,0,28.939.035a4.028,4.028,0,0,0,1.48,1.095,4.8,4.8,0,0,0,1.928.375,4.632,4.632,0,0,0,2.6-.7M33.629-8.375a3.046,3.046,0,0,1,1.021.751,3.288,3.288,0,0,1,.657,1.177,4.889,4.889,0,0,1,.229,1.532v.167H28.929v-.1a4.688,4.688,0,0,1,.24-1.532,3.444,3.444,0,0,1,.687-1.2,3.17,3.17,0,0,1,1.074-.781,3.358,3.358,0,0,1,1.4-.282,3.114,3.114,0,0,1,1.3.271m13.12,9.63h1.188V-14.169H46.749v6.461h-.062a3.227,3.227,0,0,0-1.209-1.427,3.655,3.655,0,0,0-2.043-.532,3.909,3.909,0,0,0-3.23,1.459,6.454,6.454,0,0,0-1.167,4.127A6.452,6.452,0,0,0,40.205.046,3.907,3.907,0,0,0,43.435,1.5,3.607,3.607,0,0,0,45.468.973,3.4,3.4,0,0,0,46.687-.454h.062ZM41.205-.579a4.027,4.027,0,0,1-.9-2.752v-1.5a4.028,4.028,0,0,1,.9-2.752,3.154,3.154,0,0,1,2.5-1.021,3.837,3.837,0,0,1,1.178.177,3.294,3.294,0,0,1,.969.49,2.347,2.347,0,0,1,.657.75,1.974,1.974,0,0,1,.239.959V-2A2.117,2.117,0,0,1,46.51-.986a2.4,2.4,0,0,1-.657.771,2.95,2.95,0,0,1-.969.49,4.027,4.027,0,0,1-1.178.167,3.151,3.151,0,0,1-2.5-1.021M53.012-12.522a.755.755,0,0,0,.2-.542v-.209a.753.753,0,0,0-.2-.541.812.812,0,0,0-.614-.209.811.811,0,0,0-.615.209.749.749,0,0,0-.2.541v.209a.751.751,0,0,0,.2.542.811.811,0,0,0,.615.208.811.811,0,0,0,.614-.208m-1.2,13.777H53V-9.416H51.814ZM63.079.869a4.215,4.215,0,0,0,1.491-1.7l-.876-.584A3.447,3.447,0,0,1,62.485-.037,3.382,3.382,0,0,1,60.63.442,3.021,3.021,0,0,1,58.15-.6a4.169,4.169,0,0,1-.855-2.731v-1.5a4.169,4.169,0,0,1,.855-2.731A3.024,3.024,0,0,1,60.63-8.6a3.043,3.043,0,0,1,1.741.459,2.973,2.973,0,0,1,1.052,1.334l1-.5a4.129,4.129,0,0,0-1.4-1.709,4.078,4.078,0,0,0-2.4-.646,4.159,4.159,0,0,0-3.407,1.459,6.334,6.334,0,0,0-1.2,4.127,6.332,6.332,0,0,0,1.2,4.127A4.156,4.156,0,0,0,60.63,1.5,4.377,4.377,0,0,0,63.079.869m5.336-13.391a.755.755,0,0,0,.2-.542v-.209a.753.753,0,0,0-.2-.541.813.813,0,0,0-.615-.209.813.813,0,0,0-.615.209.753.753,0,0,0-.2.541v.209a.755.755,0,0,0,.2.542.812.812,0,0,0,.615.208.812.812,0,0,0,.615-.208m-1.2,13.777H68.4V-9.416H67.216Zm6.253,0v-7.5a2.153,2.153,0,0,1,.24-1.031,2.134,2.134,0,0,1,.646-.74,2.916,2.916,0,0,1,.927-.438A4.011,4.011,0,0,1,76.366-8.6a2.565,2.565,0,0,1,2.032.792,3.573,3.573,0,0,1,.7,2.418V1.255h1.188V-5.6a4.352,4.352,0,0,0-.949-3.012,3.392,3.392,0,0,0-2.657-1.053,3.379,3.379,0,0,0-2.043.553,3.294,3.294,0,0,0-1.1,1.386h-.063V-9.417H72.281V1.255Zm19.092,0V.233H91.123V-6.095a3.437,3.437,0,0,0-1-2.632,4.044,4.044,0,0,0-2.876-.94,4.218,4.218,0,0,0-2.366.6,3.709,3.709,0,0,0-1.344,1.531l.75.62A3.285,3.285,0,0,1,85.432-8.2,3.255,3.255,0,0,1,87.2-8.646q2.73,0,2.73,2.648v1.25H87.475a5.223,5.223,0,0,0-3.324.837A2.777,2.777,0,0,0,83.14-1.653,2.975,2.975,0,0,0,84.057.679a3.759,3.759,0,0,0,2.605.826A3.762,3.762,0,0,0,88.726.984,2.922,2.922,0,0,0,89.893-.433H90v.375A1.569,1.569,0,0,0,90.351.9a1.269,1.269,0,0,0,1,.355ZM85.057,0a1.643,1.643,0,0,1-.667-1.424v-.5a1.642,1.642,0,0,1,.719-1.413,4.082,4.082,0,0,1,2.324-.514h2.5v1.99a1.972,1.972,0,0,1-.239.974,2.246,2.246,0,0,1-.667.733,3.335,3.335,0,0,1-.99.471,4.211,4.211,0,0,1-1.209.168A2.964,2.964,0,0,1,85.057,0m25.407,1.253-5.169-14.548h-1.6L98.542,1.255h1.251l1.584-4.523h6.19l1.584,4.523Zm-3.23-5.628h-5.545L104.42-12.1h.083Zm7.732,5.628h1.355l3.856-10.672h-1.209l-3.251,9.4h-.084l-3.272-9.4h-1.25Zm15.924,0V.233h-1.438V-6.095a3.436,3.436,0,0,0-1-2.632,4.044,4.044,0,0,0-2.876-.94,4.216,4.216,0,0,0-2.366.6,3.7,3.7,0,0,0-1.344,1.531l.75.62A3.285,3.285,0,0,1,123.762-8.2a3.253,3.253,0,0,1,1.772-.449q2.73,0,2.73,2.648v1.25h-2.459a5.226,5.226,0,0,0-3.325.837,2.776,2.776,0,0,0-1.01,2.258,2.975,2.975,0,0,0,.917,2.332,3.757,3.757,0,0,0,2.6.826,3.759,3.759,0,0,0,2.063-.521,2.924,2.924,0,0,0,1.168-1.417h.1v.375a1.563,1.563,0,0,0,.354.958,1.269,1.269,0,0,0,1,.355ZM123.387,0a1.643,1.643,0,0,1-.667-1.424v-.5a1.642,1.642,0,0,1,.719-1.413,4.082,4.082,0,0,1,2.324-.514h2.5v1.99a1.971,1.971,0,0,1-.239.974,2.246,2.246,0,0,1-.667.733,3.336,3.336,0,0,1-.99.471,4.216,4.216,0,0,1-1.209.168A2.964,2.964,0,0,1,123.387,0m11.13,1.253v-7.5a2.152,2.152,0,0,1,.24-1.031,2.134,2.134,0,0,1,.646-.74,2.916,2.916,0,0,1,.927-.438,4.011,4.011,0,0,1,1.084-.146,2.566,2.566,0,0,1,2.032.792,3.573,3.573,0,0,1,.7,2.418V1.255h1.188V-5.6a4.352,4.352,0,0,0-.948-3.012,3.392,3.392,0,0,0-2.657-1.053,3.379,3.379,0,0,0-2.043.553,3.3,3.3,0,0,0-1.105,1.386h-.062V-9.417h-1.188V1.255Zm17.3,0V.233H145.1L151.649-8.5v-.917h-7.691V-8.4h6.274L143.771.254v1Zm11.088,0V.233h-1.438V-6.095a3.436,3.436,0,0,0-1-2.632,4.045,4.045,0,0,0-2.877-.94,4.214,4.214,0,0,0-2.365.6,3.7,3.7,0,0,0-1.345,1.531l.751.62A3.285,3.285,0,0,1,155.776-8.2a3.253,3.253,0,0,1,1.772-.449q2.73,0,2.73,2.648v1.25h-2.459a5.226,5.226,0,0,0-3.325.837,2.777,2.777,0,0,0-1.011,2.258A2.976,2.976,0,0,0,154.4.679a3.757,3.757,0,0,0,2.6.826,3.759,3.759,0,0,0,2.063-.521,2.924,2.924,0,0,0,1.168-1.417h.1v.375A1.563,1.563,0,0,0,160.7.9a1.267,1.267,0,0,0,1,.355ZM155.4,0a1.643,1.643,0,0,1-.667-1.424v-.5a1.642,1.642,0,0,1,.719-1.413,4.079,4.079,0,0,1,2.324-.514h2.5v1.99a1.961,1.961,0,0,1-.24.974,2.231,2.231,0,0,1-.666.733,3.335,3.335,0,0,1-.99.471,4.216,4.216,0,0,1-1.209.168A2.964,2.964,0,0,1,155.4,0m16.841,1.253h1.188V-14.169h-1.188v6.461h-.063a3.228,3.228,0,0,0-1.209-1.427,3.654,3.654,0,0,0-2.042-.532A3.91,3.91,0,0,0,165.7-8.208a6.46,6.46,0,0,0-1.167,4.127A6.458,6.458,0,0,0,165.7.046,3.907,3.907,0,0,0,168.928,1.5,3.6,3.6,0,0,0,170.96.973a3.39,3.39,0,0,0,1.219-1.427h.063ZM166.7-.579a4.022,4.022,0,0,1-.9-2.752v-1.5a4.024,4.024,0,0,1,.9-2.752A3.154,3.154,0,0,1,169.2-8.6a3.831,3.831,0,0,1,1.177.177,3.312,3.312,0,0,1,.97.49,2.356,2.356,0,0,1,.656.75,1.964,1.964,0,0,1,.24.959V-2A2.106,2.106,0,0,1,172-.986a2.406,2.406,0,0,1-.656.771,2.965,2.965,0,0,1-.97.49A4.02,4.02,0,0,1,169.2.442a3.151,3.151,0,0,1-2.5-1.021m19.154,1.834V.233h-1.438V-6.095a3.436,3.436,0,0,0-1-2.632,4.044,4.044,0,0,0-2.876-.94,4.218,4.218,0,0,0-2.366.6,3.709,3.709,0,0,0-1.344,1.531l.75.62A3.279,3.279,0,0,1,178.724-8.2a3.252,3.252,0,0,1,1.771-.449q2.73,0,2.731,2.648v1.25h-2.46a5.225,5.225,0,0,0-3.324.837,2.777,2.777,0,0,0-1.011,2.258,2.975,2.975,0,0,0,.917,2.332,3.759,3.759,0,0,0,2.6.826,3.762,3.762,0,0,0,2.064-.521,2.922,2.922,0,0,0,1.167-1.417h.1v.375a1.569,1.569,0,0,0,.354.958,1.269,1.269,0,0,0,1,.355ZM178.348,0a1.646,1.646,0,0,1-.667-1.424v-.5a1.641,1.641,0,0,1,.72-1.413,4.076,4.076,0,0,1,2.323-.514h2.5v1.99a1.961,1.961,0,0,1-.24.974,2.234,2.234,0,0,1-.667.733,3.336,3.336,0,0,1-.99.471,4.206,4.206,0,0,1-1.209.168A2.964,2.964,0,0,1,178.348,0" fill="#273a7f"></path></g><g id="Grupo_2" data-name="Grupo 2" transform="translate(868.429 330.902)"><path id="Trazado_2" data-name="Trazado 2" d="M0,0V-1.105H-7.253V-6.836h6.9V-7.941h-6.9v-5.5H0v-1.1H-8.5V0ZM9.139-.584A2.856,2.856,0,0,0,10.15-2.918a2.6,2.6,0,0,0-.781-2.011A4.517,4.517,0,0,0,6.961-5.9l-.854-.126a4.07,4.07,0,0,1-1.72-.6,1.562,1.562,0,0,1-.573-1.355A1.7,1.7,0,0,1,4.45-9.4a2.811,2.811,0,0,1,1.782-.5,3.413,3.413,0,0,1,1.8.427,4.494,4.494,0,0,1,1.115.927l.792-.729a4.874,4.874,0,0,0-1.459-1.188,4.618,4.618,0,0,0-2.189-.459,5.3,5.3,0,0,0-1.438.188,3.267,3.267,0,0,0-1.146.563,2.717,2.717,0,0,0-.761.938A2.9,2.9,0,0,0,2.668-7.92a2.9,2.9,0,0,0,.239,1.24,2.469,2.469,0,0,0,.667.865,3.274,3.274,0,0,0,1.032.563A7.174,7.174,0,0,0,5.94-4.94l.875.146a3.021,3.021,0,0,1,1.678.657A1.775,1.775,0,0,1,9-2.793a1.793,1.793,0,0,1-.667,1.5,3.025,3.025,0,0,1-1.9.521,3.929,3.929,0,0,1-1.855-.417A4.508,4.508,0,0,1,3.126-2.48l-.875.688A5.011,5.011,0,0,0,3.97-.271,5.072,5.072,0,0,0,6.357.25,4.246,4.246,0,0,0,9.139-.584m10.338.2a4.2,4.2,0,0,0,1.49-1.7l-.875-.584a3.455,3.455,0,0,1-1.209,1.376,3.376,3.376,0,0,1-1.855.479,3.02,3.02,0,0,1-2.48-1.042,4.168,4.168,0,0,1-.855-2.73v-1.5a4.166,4.166,0,0,1,.855-2.73,3.02,3.02,0,0,1,2.48-1.043,3.038,3.038,0,0,1,1.74.459,2.968,2.968,0,0,1,1.053,1.334l1-.5a4.106,4.106,0,0,0-1.4-1.709,4.076,4.076,0,0,0-2.4-.647A4.162,4.162,0,0,0,13.62-9.463a6.339,6.339,0,0,0-1.2,4.127,6.335,6.335,0,0,0,1.2,4.127A4.159,4.159,0,0,0,17.028.25a4.379,4.379,0,0,0,2.449-.636M30.284,0h1.188V-10.671H30.284v7.482a2.2,2.2,0,0,1-.24,1.053,2.144,2.144,0,0,1-.646.74,2.955,2.955,0,0,1-.917.437,3.864,3.864,0,0,1-1.074.146,2.6,2.6,0,0,1-2.042-.792,3.571,3.571,0,0,1-.709-2.438v-6.628H23.468v6.857A4.321,4.321,0,0,0,24.427-.8,3.428,3.428,0,0,0,27.095.25a3.872,3.872,0,0,0,1.2-.167,3.362,3.362,0,0,0,.886-.427A2.471,2.471,0,0,0,29.8-.959a3.376,3.376,0,0,0,.4-.729h.084ZM41.757-.454a4.135,4.135,0,0,0,1.574-1.884l-.875-.58A3.236,3.236,0,0,1,39.225-.771a3.61,3.61,0,0,1-1.459-.282,3.107,3.107,0,0,1-1.094-.781,3.437,3.437,0,0,1-.688-1.2,4.684,4.684,0,0,1-.24-1.532v-.521h7.9V-5.65a6.778,6.778,0,0,0-.323-2.144,4.975,4.975,0,0,0-.907-1.663A4.081,4.081,0,0,0,41-10.535a4.356,4.356,0,0,0-1.855-.387,4.615,4.615,0,0,0-1.918.386,4.147,4.147,0,0,0-1.469,1.105,4.91,4.91,0,0,0-.938,1.75,7.825,7.825,0,0,0-.323,2.345,7.928,7.928,0,0,0,.323,2.356,4.911,4.911,0,0,0,.938,1.761A4.033,4.033,0,0,0,37.234-.125,4.8,4.8,0,0,0,39.162.25a4.627,4.627,0,0,0,2.6-.7M40.444-9.629a3.047,3.047,0,0,1,1.022.75A3.3,3.3,0,0,1,42.122-7.7a4.88,4.88,0,0,1,.229,1.532V-6H35.744v-.1a4.688,4.688,0,0,1,.24-1.532,3.433,3.433,0,0,1,.688-1.2,3.16,3.16,0,0,1,1.073-.782,3.375,3.375,0,0,1,1.4-.281,3.094,3.094,0,0,1,1.3.271M49.5,0V-1.021H47.854v-14.4H46.666V-1.292A1.314,1.314,0,0,0,47-.354a1.282,1.282,0,0,0,.98.354ZM60.714,0V-1.021H59.275V-7.35a3.436,3.436,0,0,0-1-2.632,4.048,4.048,0,0,0-2.876-.94,4.215,4.215,0,0,0-2.366.6,3.708,3.708,0,0,0-1.344,1.531l.75.621a3.281,3.281,0,0,1,1.146-1.282A3.255,3.255,0,0,1,55.357-9.9q2.73,0,2.73,2.647V-6H55.628a5.223,5.223,0,0,0-3.324.837,2.774,2.774,0,0,0-1.011,2.258A2.974,2.974,0,0,0,52.21-.576a3.759,3.759,0,0,0,2.6.826,3.756,3.756,0,0,0,2.063-.521,2.924,2.924,0,0,0,1.168-1.417h.1v.375a1.572,1.572,0,0,0,.354.959,1.272,1.272,0,0,0,1,.354Zm-7.5-1.253a1.642,1.642,0,0,1-.667-1.424v-.5a1.642,1.642,0,0,1,.719-1.413,4.083,4.083,0,0,1,2.324-.513h2.5v1.989a1.972,1.972,0,0,1-.239.974,2.236,2.236,0,0,1-.667.733,3.311,3.311,0,0,1-.99.471,4.216,4.216,0,0,1-1.209.168,2.964,2.964,0,0,1-1.772-.482M74.97,0h1.188V-15.424H74.97v6.462h-.063A3.225,3.225,0,0,0,73.7-10.39a3.662,3.662,0,0,0-2.042-.532,3.91,3.91,0,0,0-3.231,1.459,6.46,6.46,0,0,0-1.167,4.127,6.456,6.456,0,0,0,1.167,4.127A3.907,3.907,0,0,0,71.656.25a3.612,3.612,0,0,0,2.032-.531,3.393,3.393,0,0,0,1.219-1.428h.063ZM69.425-1.834a4.026,4.026,0,0,1-.9-2.751v-1.5a4.026,4.026,0,0,1,.9-2.751,3.154,3.154,0,0,1,2.5-1.022,3.836,3.836,0,0,1,1.177.178,3.268,3.268,0,0,1,.969.489,2.34,2.34,0,0,1,.657.751,1.971,1.971,0,0,1,.24.958v4.232a2.113,2.113,0,0,1-.24,1.01,2.411,2.411,0,0,1-.657.772A2.967,2.967,0,0,1,73.1-.98a4.025,4.025,0,0,1-1.177.167,3.153,3.153,0,0,1-2.5-1.021M86.443-.454a4.135,4.135,0,0,0,1.574-1.884l-.875-.58A3.236,3.236,0,0,1,83.911-.771a3.61,3.61,0,0,1-1.459-.282,3.107,3.107,0,0,1-1.094-.781,3.437,3.437,0,0,1-.688-1.2,4.684,4.684,0,0,1-.24-1.532v-.521h7.9V-5.65a6.778,6.778,0,0,0-.323-2.144A4.975,4.975,0,0,0,87.1-9.457a4.081,4.081,0,0,0-1.417-1.078,4.356,4.356,0,0,0-1.855-.387,4.615,4.615,0,0,0-1.918.386,4.147,4.147,0,0,0-1.469,1.105,4.91,4.91,0,0,0-.938,1.75,7.825,7.825,0,0,0-.323,2.345A7.928,7.928,0,0,0,79.5-2.98a4.911,4.911,0,0,0,.938,1.761A4.033,4.033,0,0,0,81.92-.125,4.8,4.8,0,0,0,83.848.25a4.632,4.632,0,0,0,2.6-.7M85.13-9.629a3.033,3.033,0,0,1,1.021.75A3.285,3.285,0,0,1,86.808-7.7a4.88,4.88,0,0,1,.229,1.532V-6H80.43v-.1a4.688,4.688,0,0,1,.24-1.532,3.433,3.433,0,0,1,.688-1.2,3.159,3.159,0,0,1,1.073-.782,3.375,3.375,0,0,1,1.4-.281,3.094,3.094,0,0,1,1.3.271m20.832,7.962a8.619,8.619,0,0,0,1.584-5.607,8.617,8.617,0,0,0-1.584-5.607,5.345,5.345,0,0,0-4.356-1.917,5.379,5.379,0,0,0-4.377,1.907,8.608,8.608,0,0,0-1.584,5.617,8.608,8.608,0,0,0,1.584,5.617A5.382,5.382,0,0,0,101.606.25a5.345,5.345,0,0,0,4.356-1.917m-6.253.447A3.918,3.918,0,0,1,98.25-2.3a5.05,5.05,0,0,1-.937-1.736,7.465,7.465,0,0,1-.334-2.321v-1.84a7.465,7.465,0,0,1,.334-2.321,4.942,4.942,0,0,1,.937-1.725,4.076,4.076,0,0,1,1.459-1.077,4.656,4.656,0,0,1,1.9-.377,4.576,4.576,0,0,1,1.886.377,4.092,4.092,0,0,1,1.449,1.077,4.959,4.959,0,0,1,.938,1.725,7.5,7.5,0,0,1,.333,2.321v1.84a7.5,7.5,0,0,1-.333,2.321,5.068,5.068,0,0,1-.938,1.736,3.932,3.932,0,0,1-1.449,1.077,4.69,4.69,0,0,1-1.886.365,4.771,4.771,0,0,1-1.9-.365M117.7,0h1.189V-15.424H117.7v6.462h-.062a3.225,3.225,0,0,0-1.209-1.428,3.662,3.662,0,0,0-2.042-.532,3.91,3.91,0,0,0-3.231,1.459,6.46,6.46,0,0,0-1.167,4.127,6.456,6.456,0,0,0,1.167,4.127A3.907,3.907,0,0,0,114.383.25a3.612,3.612,0,0,0,2.032-.531,3.4,3.4,0,0,0,1.219-1.428h.062Zm-5.544-1.834a4.026,4.026,0,0,1-.9-2.751v-1.5a4.026,4.026,0,0,1,.9-2.751,3.153,3.153,0,0,1,2.5-1.022,3.837,3.837,0,0,1,1.178.178,3.269,3.269,0,0,1,.969.489,2.34,2.34,0,0,1,.657.751,1.97,1.97,0,0,1,.239.958v4.232a2.113,2.113,0,0,1-.239,1.01,2.411,2.411,0,0,1-.657.772,2.967,2.967,0,0,1-.969.489,4.027,4.027,0,0,1-1.178.167,3.152,3.152,0,0,1-2.5-1.021m16.32,1.709a3.965,3.965,0,0,0,1.459-1.094,5.155,5.155,0,0,0,.938-1.761,7.728,7.728,0,0,0,.333-2.356,7.627,7.627,0,0,0-.333-2.345,5.156,5.156,0,0,0-.938-1.75,4.06,4.06,0,0,0-1.459-1.105,4.615,4.615,0,0,0-1.918-.386,4.61,4.61,0,0,0-1.917.386,4.06,4.06,0,0,0-1.459,1.105,5.139,5.139,0,0,0-.938,1.75,7.626,7.626,0,0,0-.334,2.345,7.727,7.727,0,0,0,.334,2.356,5.138,5.138,0,0,0,.938,1.761,3.965,3.965,0,0,0,1.459,1.094,4.721,4.721,0,0,0,1.917.375,4.726,4.726,0,0,0,1.918-.375M124.085-1.8a4.1,4.1,0,0,1-.907-2.866V-6a4.09,4.09,0,0,1,.907-2.876,3.2,3.2,0,0,1,2.469-.98,3.185,3.185,0,0,1,2.47.99A4.1,4.1,0,0,1,129.931-6v1.334a4.092,4.092,0,0,1-.907,2.877,3.2,3.2,0,0,1-2.47.979,3.181,3.181,0,0,1-2.469-.99M135.412,0V-7.5a2.154,2.154,0,0,1,.24-1.032,2.144,2.144,0,0,1,.646-.74,2.954,2.954,0,0,1,.928-.438,4,4,0,0,1,1.083-.146,2.572,2.572,0,0,1,2.033.792,3.58,3.58,0,0,1,.7,2.418V0h1.188V-6.857a4.347,4.347,0,0,0-.949-3.012,3.4,3.4,0,0,0-2.657-1.053,3.381,3.381,0,0,0-2.043.553,3.294,3.294,0,0,0-1.1,1.386h-.063v-1.688h-1.188V0Zm14.507,0V-1.021h-2.251V-9.65h2.417v-1.021h-2.417v-2.981h-1.084v2.168a.97.97,0,0,1-.157.635.773.773,0,0,1-.594.178h-1.208V-9.65h1.854v8.334a1.349,1.349,0,0,0,.334.961,1.279,1.279,0,0,0,.98.355Zm8.649-.125a3.965,3.965,0,0,0,1.459-1.094,5.138,5.138,0,0,0,.938-1.761,7.727,7.727,0,0,0,.334-2.356,7.626,7.626,0,0,0-.334-2.345,5.139,5.139,0,0,0-.938-1.75,4.06,4.06,0,0,0-1.459-1.105,4.613,4.613,0,0,0-1.917-.386,4.615,4.615,0,0,0-1.918.386,4.06,4.06,0,0,0-1.459,1.105,5.139,5.139,0,0,0-.938,1.75A7.627,7.627,0,0,0,152-5.336a7.728,7.728,0,0,0,.333,2.356,5.138,5.138,0,0,0,.938,1.761,3.965,3.965,0,0,0,1.459,1.094,4.726,4.726,0,0,0,1.918.375,4.724,4.724,0,0,0,1.917-.375M154.181-1.8a4.1,4.1,0,0,1-.907-2.866V-6a4.09,4.09,0,0,1,.907-2.876,3.2,3.2,0,0,1,2.47-.98,3.184,3.184,0,0,1,2.469.99A4.1,4.1,0,0,1,160.027-6v1.334a4.091,4.091,0,0,1-.907,2.877,3.2,3.2,0,0,1-2.469.979,3.182,3.182,0,0,1-2.47-.99M167.155,0V-1.021h-1.647v-14.4H164.32V-1.292a1.31,1.31,0,0,0,.334.938,1.282,1.282,0,0,0,.98.354Zm8.379-.125a3.981,3.981,0,0,0,1.459-1.094,5.172,5.172,0,0,0,.938-1.761,7.728,7.728,0,0,0,.333-2.356,7.627,7.627,0,0,0-.333-2.345,5.174,5.174,0,0,0-.938-1.75,4.077,4.077,0,0,0-1.459-1.105,4.615,4.615,0,0,0-1.918-.386,4.607,4.607,0,0,0-1.917.386,4.051,4.051,0,0,0-1.459,1.105,5.122,5.122,0,0,0-.938,1.75,7.6,7.6,0,0,0-.334,2.345A7.7,7.7,0,0,0,169.3-2.98a5.121,5.121,0,0,0,.938,1.761A3.956,3.956,0,0,0,171.7-.125a4.718,4.718,0,0,0,1.917.375,4.726,4.726,0,0,0,1.918-.375M171.146-1.8a4.1,4.1,0,0,1-.906-2.866V-6a4.1,4.1,0,0,1,.906-2.876,3.2,3.2,0,0,1,2.47-.98,3.186,3.186,0,0,1,2.47.99A4.105,4.105,0,0,1,176.993-6v1.334a4.1,4.1,0,0,1-.907,2.877,3.2,3.2,0,0,1-2.47.979,3.185,3.185,0,0,1-2.47-.99M189.175-.719a4.38,4.38,0,0,0-2.8-.719h-2.481q-1.709,0-1.709-.959a1.014,1.014,0,0,1,.448-.865,3.545,3.545,0,0,1,1.136-.511l.542.084a3.673,3.673,0,0,0,.563.042,4.639,4.639,0,0,0,1.594-.261,3.459,3.459,0,0,0,1.23-.75,3.448,3.448,0,0,0,.792-1.157,3.765,3.765,0,0,0,.281-1.48,3.736,3.736,0,0,0-.291-1.49,3.241,3.241,0,0,0-.834-1.157v-1.021h2.168v-1.022h-1.834a.89.89,0,0,0-.751.3,1.214,1.214,0,0,0-.229.766v.521a4.278,4.278,0,0,0-2.147-.521,4.639,4.639,0,0,0-1.594.261,3.517,3.517,0,0,0-1.23.74,3.213,3.213,0,0,0-.782,1.146,3.912,3.912,0,0,0-.271,1.48,3.7,3.7,0,0,0,.521,2,3.219,3.219,0,0,0,1.459,1.251v.083a3.5,3.5,0,0,0-1.292.625,1.458,1.458,0,0,0-.521,1.209,1.452,1.452,0,0,0,1,1.459V-.5a2.772,2.772,0,0,0-1.355.792,2.119,2.119,0,0,0-.48,1.459A2.223,2.223,0,0,0,181.39,3.71a6.66,6.66,0,0,0,3.523.709,7.625,7.625,0,0,0,3.824-.772,2.59,2.59,0,0,0,1.3-2.4,2.426,2.426,0,0,0-.865-1.97M188,2.928a4.976,4.976,0,0,1-2.459.511H184.2a3.289,3.289,0,0,1-2.084-.552,1.708,1.708,0,0,1-.688-1.386,1.693,1.693,0,0,1,.4-1.147,2.4,2.4,0,0,1,1.084-.687h3.46a3.216,3.216,0,0,1,1.969.448,1.486,1.486,0,0,1,.553,1.219,1.706,1.706,0,0,1-.9,1.594m-5.054-8.149a2.194,2.194,0,0,1-.7-1.74v-.667a2.186,2.186,0,0,1,.688-1.72,2.807,2.807,0,0,1,1.938-.615,2.818,2.818,0,0,1,1.928.615,2.173,2.173,0,0,1,.7,1.72v.667a2.2,2.2,0,0,1-.7,1.74,2.818,2.818,0,0,1-1.928.615,2.816,2.816,0,0,1-1.928-.615m10.557-5.45h-1.188V0H193.5ZM193.5,0m1.646-15.465-1.084-.542-1.98,3.418.772.375ZM205.922,0V-1.021h-1.438V-7.35a3.437,3.437,0,0,0-1-2.632,4.048,4.048,0,0,0-2.876-.94,4.218,4.218,0,0,0-2.366.6A3.715,3.715,0,0,0,196.9-8.791l.75.621a3.275,3.275,0,0,1,1.147-1.282,3.251,3.251,0,0,1,1.771-.448q2.73,0,2.731,2.647V-6h-2.46a5.225,5.225,0,0,0-3.324.837A2.777,2.777,0,0,0,196.5-2.908a2.974,2.974,0,0,0,.917,2.332,3.759,3.759,0,0,0,2.6.826,3.762,3.762,0,0,0,2.064-.521,2.922,2.922,0,0,0,1.167-1.417h.1v.375a1.572,1.572,0,0,0,.354.959,1.272,1.272,0,0,0,1,.354Zm-7.5-1.253a1.645,1.645,0,0,1-.667-1.424v-.5a1.641,1.641,0,0,1,.72-1.413,4.077,4.077,0,0,1,2.323-.513h2.5v1.989a1.961,1.961,0,0,1-.24.974,2.225,2.225,0,0,1-.667.733,3.311,3.311,0,0,1-.99.471,4.206,4.206,0,0,1-1.209.168,2.964,2.964,0,0,1-1.772-.482" fill="#273a7f"></path></g></g><g id="Grupo_10" data-name="Grupo 10"><path id="Trazado_5" data-name="Trazado 5" d="M451.323-551.905a18.7,18.7,0,0,0-8.978,1.82h0a15.7,15.7,0,0,0-5.5,5.045h0l6.008,5.355a12.871,12.871,0,0,1,2.935-2.936h0a7.942,7.942,0,0,1,4.78-1.3h0q3.209,0,4.574,1.537h0a5.991,5.991,0,0,1,1.366,4.13h0V-536h-5.667q-7.1,0-11.231,2.757h0a8.8,8.8,0,0,0-3.163,3.669h0v-8.133q0-6.825-2.764-10.514h0a9.342,9.342,0,0,0-7.955-3.686h0a12.251,12.251,0,0,0-3.822.579h0a13.1,13.1,0,0,0-3.209,1.537h0a9.673,9.673,0,0,0-2.424,2.288h0a9.571,9.571,0,0,0-1.468,2.833h-.2a10.3,10.3,0,0,0-3.756-5.394h0a10.561,10.561,0,0,0-6.281-1.843h0a9.358,9.358,0,0,0-6.349,2.014h0a10.933,10.933,0,0,0-3.277,4.881h-.41v-6.076h-10.1V-540.3c-.067-.225-.119-.46-.193-.681h0a16.766,16.766,0,0,0-3.311-5.906h0a14.3,14.3,0,0,0-5.257-3.72h0a18.215,18.215,0,0,0-7.066-1.3h0a18.213,18.213,0,0,0-7.067,1.3h0a14.286,14.286,0,0,0-5.256,3.72h0a16.768,16.768,0,0,0-3.312,5.906h0a21.469,21.469,0,0,0-.668,2.63h0c-.134-.734-.248-1.474-.446-2.186h0a16.261,16.261,0,0,0-2.935-5.838h0a14.394,14.394,0,0,0-5.189-4.027h0a17.681,17.681,0,0,0-7.612-1.5h0a18.232,18.232,0,0,0-7.17,1.331h0a14.382,14.382,0,0,0-5.291,3.789h0a16.329,16.329,0,0,0-3.242,5.906h0a25.327,25.327,0,0,0-1.093,7.68h0a25.214,25.214,0,0,0,1.127,7.784h0a15.79,15.79,0,0,0,3.345,5.9h0a15.054,15.054,0,0,0,5.428,3.756h0a18.9,18.9,0,0,0,7.3,1.331h0A23.024,23.024,0,0,0,345.3-516h0a15.923,15.923,0,0,0,6.246-4.381h0l-5.051-6.3a20.2,20.2,0,0,1-3.687,3.013h0a9.445,9.445,0,0,1-5.121,1.252h0q-4.1,0-6.007-2.065h0a7.9,7.9,0,0,1-1.912-5.585h0v-.542h22.166a22.867,22.867,0,0,0,1.034,5.189h0a17.11,17.11,0,0,0,3.312,5.939h0a14.085,14.085,0,0,0,5.256,3.755h0a18.213,18.213,0,0,0,7.067,1.3h0a18.215,18.215,0,0,0,7.066-1.3h0a14.1,14.1,0,0,0,5.257-3.755h0a17.108,17.108,0,0,0,3.311-5.939h0c.074-.221.126-.456.193-.681h0v10.853h10.1v-23.213a4.908,4.908,0,0,1,.512-2.286h0a5.159,5.159,0,0,1,1.365-1.674h0a5.518,5.518,0,0,1,1.912-.99h0a7.707,7.707,0,0,1,2.151-.306h0q4.916,0,4.916,6.827h0v21.642h10.1v-23.213a4.517,4.517,0,0,1,1.843-3.96h0a6.962,6.962,0,0,1,4.1-1.3h0q4.917,0,4.916,6.827h0v21.642h10.1v-4.86a9.3,9.3,0,0,0,1.9,2.822h0q2.868,2.856,8.261,2.857h0a12.452,12.452,0,0,0,6.895-1.809h0a8.288,8.288,0,0,0,3.619-5.291h.41a7.835,7.835,0,0,0,2.287,4.574h0a6.355,6.355,0,0,0,4.54,1.707h5.6v-7.118h-3.345V-538.8q0-6.415-3.823-9.763h0Q458.968-551.9,451.323-551.905ZM329.766-537.09a7.915,7.915,0,0,1,1.741-5.36h0a6.028,6.028,0,0,1,4.813-2.014h0a5.249,5.249,0,0,1,4.541,2.014h0a8.783,8.783,0,0,1,1.467,5.291h0v.615H329.766Zm34.192,12.835a7.657,7.657,0,0,1-1.638-5.257h0v-7.306a7.658,7.658,0,0,1,1.638-5.256h0a5.888,5.888,0,0,1,4.643-1.844h0a5.886,5.886,0,0,1,4.642,1.844h0a7.653,7.653,0,0,1,1.639,5.256h0v7.306a7.653,7.653,0,0,1-1.639,5.257h0a5.885,5.885,0,0,1-4.642,1.843h0a5.887,5.887,0,0,1-4.643-1.843m82.927,1.885a3.353,3.353,0,0,1-1.228-2.879h0v-1.017q0-4,5.939-4h4.916v4.2a3.79,3.79,0,0,1-1.81,3.523h0a8.271,8.271,0,0,1-4.335,1.084h0a5.742,5.742,0,0,1-3.482-.914" transform="translate(545 807.812)" fill="url(#linear-gradient)"></path><g id="Grupo_9" data-name="Grupo 9"><path id="Trazado_6" data-name="Trazado 6" d="M477.744-515.2h35.788v-7.169H477.744Z" transform="translate(545 807.812)" fill="#273a7f"></path><path id="Trazado_7" data-name="Trazado 7" d="M499.562-529.675H535.35v-7.169H499.562Z" transform="translate(545 807.812)" fill="#df057f"></path><path id="Trazado_8" data-name="Trazado 8" d="M485.018-543.957h35.788v-7.169H485.018Z" transform="translate(545 807.812)" fill="#01f9c6"></path></g></g></g></svg>